{"title":"Astro Boy (2009) BDRip 1080p Ita Eng Ac3 Sub Ita Eng mkv","uid":12967538,"size":5011878886,"categoryP":"video","categoryS":"movies","magnet":"?xt=urn:btih:1739cb99a034523d49f3de34ba878c46b07f95b7&amp;dn=Astro+Boy+%282009%29+BDRip+1080p+Ita+Eng+Ac3+Sub+Ita+Eng+mkv&amp;tr=udp%3A%2F%2Ftracker.leechers-paradise.org%3A6969&amp;tr=udp%3A%2F%2Fzer0day.ch%3A1337&amp;tr=udp%3A%2F%2Fopen.demonii.com%3A1337&amp;tr=udp%3A%2F%2Ftracker.coppersurfer.tk%3A6969&amp;tr=udp%3A%2F%2Fexodus.desync.com%3A6969","seeders":1,"leechers":0,"uploader":"emypenna","files":1,"time":1449905132,"description":"Astro Boy (2009) BDRip 1080p Ita Eng Ac3 Sub Ita Eng mkv\r\n \nhttp://i203.photobucket.com/albums/aa247/mau1mau/mau%2026/locandina-1.jpg\r\n\r\nTrama: \r\nAstro Boy è l'avventura-storia che descrive le origini di un supereroe. \r\nNel futuristico mondo di Metro City, una splendente metropoli che si trova nel cielo, \r\nil brillante scienziato dott. Tenma decide di creare Astro Boy,\r\naffinché prenda il posto del figlio tragicamente scomparso. \r\nLo scienziato programma la sua creatura con i più alti valori e con le migliori caratteristiche umane possibili,\r\ndotandola di straordinari super poteri. Ben presto, però, \r\nAstro Boy mostra di non essere in grado di soddisfare le aspettative del padre e il piccolo Robot deve affrontare la dura realtà di non essere umano. \r\nTratto dall'omonimo famosissimo manga creato da Osamu Tezuka.\r\n\r\nAstro Boy\r\n\r\nTitolo originale: Astro Boy\r\nNazione: U.S.A.\r\nAnno: 2009\r\nGenere: Animazione\r\nDurata: 100'\r\nRegia: David Bowers\r\nSito ufficiale: www.astroboy-themovie.com\r\nSito italiano: www.movieplayer.it/astroboy\r\n\r\ninfo file\r\n\r\nGenerale\r\nUnique ID : 193624134456667104888704150515307600001 (0x91AAA6DFAE93B02C8AE7B46604315881)\r\nComplete name : C:UsersUserDesktopAstro.Boy.(2009).[BDRip-1080p].mkv\r\nFormat : Matroska\r\nFormat version : Version 4 / Version 2\r\nFile size : 4,67 GiB\r\nDuration : 1o 34min\r\nOverall bit rate : 7.074 Kbps\r\nMovie name : Astro Boy Blu-ray™\r\nEncoded date : UTC 2015-12-10 00:36:27\r\nWriting application : mkvmerge v8.3.0 ('Over the Horizon') 64bit\r\nWriting library : libebml v1.3.1 + libmatroska v1.4.2\r\n\r\nVideo\r\nID : 1\r\nFormat : AVC\r\nFormat/Info : Advanced Video Codec\r\nFormat profile :   \r\nFormat settings, CABAC : Si\r\nFormat settings, ReFrames : 5 frame\r\nCodec ID : V_MPEG4/ISO/AVC\r\nDuration : 1o 33min\r\nBit rate : 6.225 Kbps\r\nWidth : 1.920 pixel\r\nHeight : 816 pixel\r\nDisplay aspect ratio : 2,35:1\r\nFrame rate mode : Costante\r\nFrame rate : 23,976 (24000/1001) fps\r\nColor space : YUV\r\nChroma subsampling : 4:2:0\r\nBit depth : 8 bit\r\nScan type : Progressivo\r\nBits/(Pixel*Frame) : 0.166\r\nStream size : 4,08 GiB (87%)\r\nWriting library : x264 core 118 r2085 8a62835\r\nEncoding settings : cabac=1 / ref=5 / deblock=1:0:0 / analyse=0x3:0x133 / me=umh / subme=10 / psy=1 / psy_rd=1.00:0.00 / mixed_ref=1 / me_range=32 / chroma_me=1 / trellis=2 / 8x8dct=1 / cqm=0 / deadzone=21,11 / fast_pskip=0 / chroma_qp_offset=-2 / threads=12 / sliced_threads=0 / nr=0 / decimate=1 / interlaced=0 / bluray_compat=0 / constrained_intra=0 / bframes=3 / b_pyramid=2 / b_adapt=2 / b_bias=0 / direct=3 / weightb=1 / open_gop=0 / weightp=2 / keyint=240 / keyint_min=24 / scenecut=40 / intra_refresh=0 / rc_lookahead=60 / rc=2pass / mbtree=1 / bitrate=6225 / ratetol=1.0 / qcomp=0.60 / qpmin=0 / qpmax=69 / qpstep=4 / cplxblur=20.0 / qblur=0.5 / ip_ratio=1.40 / aq=1:1.00\r\nLanguage : Inglese\r\nDefault : No\r\nForced : No\r\n\r\nAudio #1\r\nID : 2\r\nFormat : AC-3\r\nFormat/Info : Audio Coding 3\r\nMode extension : CM (complete main)\r\nFormat settings, Endianness : Big\r\nCodec ID : A_AC3\r\nDuration : 1o 34min\r\nBit rate mode : Costante\r\nBit rate : 448 Kbps\r\nChannel(s) : 6 canali\r\nChannel positions : Front: L C R, Side: L R, LFE\r\nSampling rate : 48,0 KHz\r\nFrame rate : 31,250 fps (1536 spf)\r\nCompression mode : Con perdita\r\nStream size : 303MiB (6%)\r\nTitle : ITA AC3 5.1 Kbps 448\r\nLanguage : Italiano\r\nDefault : Si\r\nForced : Si\r\n\r\nAudio #2\r\nID : 3\r\nFormat : AC-3\r\nFormat/Info : Audio Coding 3\r\nMode extension : CM (complete main)\r\nFormat settings, Endianness : Big\r\nCodec ID : A_AC3\r\nDuration : 1o 33min\r\nBit rate mode : Costante\r\nBit rate : 448 Kbps\r\nChannel(s) : 6 canali\r\nChannel positions : Front: L C R, Side: L R, LFE\r\nSampling rate : 48,0 KHz\r\nFrame rate : 31,250 fps (1536 spf)\r\nCompression mode : Con perdita\r\nStream size : 301MiB (6%)\r\nTitle : ENG AC3 5.1 Kbps 448\r\nLanguage : Inglese\r\nDefault : No\r\nForced : No\r\n\r\nTesto #1\r\nID : 4\r\nFormat : UTF-8\r\nCodec ID : S_TEXT/UTF8\r\nCodec ID/Info : UTF-8 Plain Text\r\nDuration : 1o 25min\r\nBit rate : 63 bps\r\nCount of elements : 1287\r\nStream size : 39,3 KiB (0%)\r\nTitle : SUB ITA\r\nLanguage : Italiano\r\nDefault : No\r\nForced : No\r\n\r\nTesto #2\r\nID : 5\r\nFormat : UTF-8\r\nCodec ID : S_TEXT/UTF8\r\nCodec ID/Info : UTF-8 Plain Text\r\nDuration : 1o 26min\r\nBit rate : 65 bps\r\nCount of elements : 1310\r\nStream size : 41,3 KiB (0%)\r\nTitle : SUB ENG\r\nLanguage : Inglese\r\nDefault : No\r\nForced : No\r\n\r\nMenu\r\n00:00:00.000 : :Chapter 01\r\n00:05:26.492 : :Chapter 02\r\n00:12:40.509 : :Chapter 03\r\n00:17:41.602 : :Chapter 04\r\n00:22:41.151 : :Chapter 05\r\n00:26:56.489 : :Chapter 06\r\n00:29:30.393 : :Chapter 07\r\n00:33:34.762 : :Chapter 08\r\n00:37:24.784 : :Chapter 09\r\n00:42:14.240 : :Chapter 10\r\n00:47:46.321 : :Chapter 11\r\n00:52:19.052 : :Chapter 12\r\n00:57:24.357 : :Chapter 13\r\n01:00:14.611 : :Chapter 14\r\n01:06:49.005 : :Chapter 15\r\n01:13:00.959 : :Chapter 16\r\n01:18:20.028 : :Chapter 17\r\n01:22:15.347 : :Chapter 18\r\n01:33:48.372 : :Chapter 19","torrent":{"xt":"urn:btih:1739cb99a034523d49f3de34ba878c46b07f95b7","amp;dn":"Astro+Boy+%282009%29+BDRip+1080p+Ita+Eng+Ac3+Sub+Ita+Eng+mkv","amp;tr":["udp%3A%2F%2Ftracker.leechers-paradise.org%3A6969","udp%3A%2F%2Fzer0day.ch%3A1337","udp%3A%2F%2Fopen.demonii.com%3A1337","udp%3A%2F%2Ftracker.coppersurfer.tk%3A6969","udp%3A%2F%2Fexodus.desync.com%3A6969"],"infoHash":"1739cb99a034523d49f3de34ba878c46b07f95b7","infoHashBuffer":{"type":"Buffer","data":[23,57,203,153,160,52,82,61,73,243,222,52,186,135,140,70,176,127,149,183]},"announce":[],"urlList":[]}}